<?xml version="1.0" encoding="utf-8"?>
<?xml-stylesheet type="text/xsl" href="rss1.xsl"?>
<rss version="2.0" xmlns:atom="http://www.w3.org/2005/Atom" xmlns:content="http://purl.org/rss/1.0/modules/content/" xmlns:dc="http://purl.org/dc/elements/1.1/" xmlns:media="http://search.yahoo.com/mrss/">
<channel>
 <title>Getty</title>
 <link>http://www.gettyimg.com/</link>
 <atom:link href="http://www.gettyimg.com/" rel="self" type="application/rss+xml" />

 
                <item>
                <title><![CDATA[【Cinema Center】MOVIE - What a Girl Wants - 2003 - 1080p - DDP2.0 - x264]]></title>
                <link><![CDATA[https://sharemania.us/threads/what-a-girl-wants-2003-1080p-ddp2-0-x264.225593/]]></link>
                <description><![CDATA[<article>
<blockquote class="messageText SelectQuoteContainer ugc baseHtml">
<img src="https://ia902709.us.archive.org/30/items/what-a-girl-wants-2003-1080p-ddp2.0-x264/What%20a%20Girl%20Wants%20-%202003%20-%201080p%20-%20DDP2.0%20-%20x264.mkv_thumbs_%5B2023.08.01_13.05.05%5D.jpg" class="bbCodeImage LbImage" alt="[​IMG]" data-url="https://ia902709.us.archive.org/30/items/what-a-girl-wants-2003-1080p-ddp2.0-x264/What%20a%20Girl%20Wants%20-%202003%20-%201080p%20-%20DDP2.0%20-%20x264.mkv_thumbs_%5B2023.08.01_13.05.05%5D.jpg" style=""> <br>
<br>
<div class="bbCodeBlock bbCodeCode">
<div class="type">Code:</div>
<pre>General
Complete name                  : What a Girl Wants - 2003 - 1080p - DDP2.0 - x264.mkv
Format                         : Matroska
Format version                 : Version 4 / Version 2
File size                      : 10.1 GiB
Duration                       : 1 h 44 min
Overall bit rate mode          : Variable
Overall bit rate               : 13.8 Mb/s
Encoded date                   : UTC 2017-10-23 18:55:42
Writing application            : mkvmerge v13.0.0 ('The Juggler') 64bit
Writing library                : libebml v1.3.4 + libmatroska v1.4.5

Video
ID                             : 1
Format                         : AVC
Format/Info                    : Advanced Video Codec
Format profile                 : High@L4
Format settings, CABAC         : Yes
Format settings, RefFrames     : 4 frames
Codec ID                       : V_MPEG4/ISO/AVC
Duration                       : 1 h 44 min
Bit rate mode                  : Variable
Bit rate                       : 13.6 Mb/s
Maximum bit rate               : 15.0 Mb/s
Width                          : 1 920 pixels
Height                         : 1 080 pixels
Display aspect ratio           : 16:9
Frame rate mode                : Constant
Frame rate                     : 23.976 (24000/1001) FPS
Color space                    : YUV
Chroma subsampling             : 4:2:0
Bit depth                      : 8 bits
Scan type                      : Progressive
Bits/(Pixel*Frame)             : 0.273
Stream size                    : 9.93 GiB (98%)
Writing library                : x264 core 148 r2623 d5b2374
Encoding settings              : cabac=1 / ref=4 / deblock=1:-1:-1 / analyse=0x3:0x133 / me=umh / subme=9 / psy=1 / psy_rd=1.00:0.15 / mixed_ref=1 / me_range=24 / chroma_me=1 / trellis=2 / 8x8dct=1 / cqm=0 / deadzone=21,11 / fast_pskip=1 / chroma_qp_offset=-3 / threads=34 / lookahead_threads=5 / sliced_threads=0 / nr=150 / decimate=1 / interlaced=0 / bluray_compat=0 / constrained_intra=0 / bframes=8 / b_pyramid=2 / b_adapt=2 / b_bias=0 / direct=3 / weightb=1 / open_gop=0 / weightp=2 / keyint=120 / keyint_min=61 / scenecut=0 / intra_refresh=0 / rc_lookahead=120 / rc=crf / mbtree=1 / crf=18.0 / qcomp=0.60 / qpmin=0 / qpmax=69 / qpstep=4 / vbv_maxrate=15000 / vbv_bufsize=31250 / crf_max=0.0 / nal_hrd=vbr / filler=0 / ip_ratio=1.40 / aq=3:1.00
Default                        : Yes
Forced                         : No
Color range                    : Limited
Color primaries                : BT.709
Transfer characteristics       : BT.709
Matrix coefficients            : BT.709

Audio
ID                             : 2
Format                         : E-AC-3
Format/Info                    : Enhanced Audio Coding 3
Format settings, Endianness    : Big
Codec ID                       : A_EAC3
Duration                       : 1 h 44 min
Bit rate mode                  : Constant
Bit rate                       : 224 kb/s
Channel(s)                     : 2 channels
Channel positions              : Front: L R
Sampling rate                  : 48.0 kHz
Frame rate                     : 187.500 FPS (256 SPF)
Compression mode               : Lossy
Stream size                    : 168 MiB (2%)
Language                       : English
Service kind                   : Complete Main
Default                        : Yes
Forced                         : No

Text
ID                             : 3
Format                         : UTF-8
Codec ID                       : S_TEXT/UTF8
Codec ID/Info                  : UTF-8 Plain Text
Duration                       : 1 h 44 min
Bit rate                       : 70 b/s
Count of elements              : 1834
Stream size                    : 53.9 KiB (0%)
Language                       : English
Default                        : No
Forced                         : No

Menu
00:00:00.000                   : en:Studio Logos
00:00:38.000                   : en:Opening Credits, Daphne Narrates Her Story; Various Locations
00:02:11.000                   : en:Libby Tells Daphne about Her Dad; Daphne's House
00:04:45.000                   : en:Daphne &amp; Her Mom Work Together; Banquet Hall
00:08:47.000                   : en:Daphne Feels Lonely Without Her Father; Banquet Hall
00:10:17.000                   : en:Daphne Leaves to Find Her Father; House &amp; Taxi
00:11:37.000                   : en:Daphne Arrives in London; Great Britain Grand Hotel
00:14:34.000                   : en:Alistair &amp; Henry Discuss Henry's Election Speech; Dashwood Mansion
00:15:48.000                   : en:Daphne Meets Ian; Street
00:16:29.000                   : en:Daphne Tries to Enter the Dashwood Mansion; Dashwood Mansion
00:19:46.000                   : en:Daphne Meets Henry; Dashwood Mansion
00:23:01.000                   : en:Henry Is Shocked to Find He Has a Daughter; Dashwood Mansion
00:24:56.000                   : en:Henry Talks to Libby about Daphne; Dashwood Mansion
00:26:11.000                   : en:Henry Believes Daphne Is a Mature Young Lady; Conference Room
00:27:39.000                   : en:Henry Invites Daphne to the Royal Dress Show; Dashwood Mansion
00:30:53.000                   : en:Daphne Has a Mishap in the Bathroom; Dashwood Mansion
00:33:30.000                   : en:Daphne Surprises Everyone; Royal Dress Show
00:36:11.000                   : en:Daphne Plays With Princess Charlotte's Dog; Royal Dress Show
00:37:38.000                   : en:Henry Talks to Daphne; Dashwood Mansion
00:40:57.000                   : en:Clarissa Gets Jealous of Daphne; Dashwood Mansion
00:44:04.000                   : en:Daphne Gets Attention at Lord Orwood's Party; Lord Orwood's Mansion
00:47:12.000                   : en:Daphne Dances With Armistead; Lord Orwood's Mansion
00:49:28.000                   : en:Daphne &amp; Ian Get the Party Going; Lord Orwood's Mansion
00:52:40.000                   : en:Henry Looks At Daphne's Childhood Photos; Dashwood Mansion
00:54:21.000                   : en:Daphne Apologizes to Henry; Dashwood Mansion
00:56:23.000                   : en:Daphne Goes Out With Ian; Dashwood Mansion
00:57:49.000                   : en:Daphne Goes Shopping with Ian; Market
00:59:21.000                   : en:Daphne &amp; Ian Go Boating; Boat
01:01:45.000                   : en:Henry Worries About Daphne; Dashwood Mansion
01:03:10.000                   : en:Henry &amp; Daphne Address the Media; Henley Regatta
01:05:02.000                   : en:Daphne Makes Another Splash; Henley Regatta
01:08:05.000                   : en:Daphne Spends the Day With Henry; Various Locations
01:11:57.000                   : en:Henry Is on the Verge of Losing His Position; Dashwood Office
01:12:47.000                   : en:Daphne Undergoes a Transformation for Henry; Dashwood Mansion
01:16:45.000                   : en:Daphne Goes To the Annual Garden Party; Garden
01:17:37.000                   : en:Henry Introduces Daphne to Society; Dashwood Mansion
01:20:34.000                   : en:Henry &amp; Libby Dance; Dashwood Mansion
01:24:27.000                   : en:Daphne Leaves the Party; Dashwood Mansion
01:26:27.000                   : en:Daphne Tells Henry How She Feels; Dashwood Mansion
01:28:23.000                   : en:Daphne Misses Henry &amp; Ian; Dashwood Mansion
01:31:33.000                   : en:Henry Speaks at a Press Conference; Hall
01:35:03.000                   : en:Henry Surprises Daphne; Lawn
01:39:49.000                   : en:Daphne Lives Happily Ever After; Various Locations
01:41:05.000                   : en:End Credits</pre>
</div><img src="https://m.media-amazon.com/images/M/MV5BOTllOWQyNzktMTE5OS00NzJkLTgyYjUtNjIwY2Y4OThhNjgxL2ltYWdlXkEyXkFqcGdeQXVyMTQxNzMzNDI@._V1_.jpg" class="bbCodeImage LbImage" alt="[​IMG]" data-url="https://m.media-amazon.com/images/M/MV5BOTllOWQyNzktMTE5OS00NzJkLTgyYjUtNjIwY2Y4OThhNjgxL2ltYWdlXkEyXkFqcGdeQXVyMTQxNzMzNDI@._V1_.jpg" style=""> <br>
<br>
<a href="https://en.wikipedia.org/wiki/What_a_Girl_Wants_(film)" target="_blank" class="externalLink" rel="nofollow">https://en.wikipedia.org/wiki/What_a_Girl_Wants_(film)</a><br>
<br>
<div class="bbCodeBlock bbCodeVfcHH HiddenContent">
<div class="attribution type">Hidden Content:</div>
<blockquote>You must either reply or click 'Like' to see the hidden information contained here.</blockquote>
</div>^ Sorry if the download goes too slow for you. Google is not user friendly while being a privacy nightmare. MEGA requires a subscription to download 10.8GB. Microsoft makes OneDrive a privacy nightmare when registering an account and logging in. Yandex is a privacy nightmare when registering an account and logging in to use its cloud service. So, this is why I resort to using zachowajto.pl because it has its own contact page while not being a privacy nightmare. It's getting harder to find privacy-friendly platforms not requiring payment for large file uploads.<br>
<br>
Soundtrack:<br>
<br>
<a href="https://sharemania.us/threads/various-artists-2003-what-a-girl-wants-music-from-the-motion-picture-16-bit-44-1khz.225120/" class="internalLink">https://sharemania.us/threads/vario...rom-the-motion-picture-16-bit-44-1khz.225120/</a>
<div class="messageTextEndMarker">&nbsp;</div>
</blockquote>
</article>]]></description>
                <author><![CDATA[SharingIsCaring]]></author>
                </item>

                </channel></rss>